<?xml version="1.0" encoding="UTF-8" standalone="no"?><!DOCTYPE svg PUBLIC "-//W3C//DTD SVG 1.1//EN" "http://www.w3.org/Graphics/SVG/1.1/DTD/svg11.dtd"><svg width="100%" height="100%" viewBox="0 0 1000 50" version="1.1" xmlns="http://www.w3.org/2000/svg" xmlns:xlink="http://www.w3.org/1999/xlink" xml:space="preserve" xmlns:serif="http://www.serif.com/" style="fill-rule:evenodd;clip-rule:evenodd;stroke-linecap:round;stroke-linejoin:round;"><rect id="ICONS" x="0" y="0" width="1000" height="50" style="fill:none;"/><clipPath id="_clip1"><rect x="0" y="0" width="1000" height="50"/></clipPath><g clip-path="url(#_clip1)"><g id="file"><rect x="0" y="0" width="50" height="50" style="fill:none;"/><path d="M28.75,10l-12.75,0c-1.646,0 -3,1.354 -3,3l0,24c0,1.646 1.354,3 3,3l18,0c1.646,0 3,-1.354 3,-3l0,-18.75l-8.25,-8.25Z" style="fill:none;fill-rule:nonzero;stroke:#333;stroke-width:3px;"/><path d="M28,10l0,9l9,0" style="fill:none;fill-rule:nonzero;stroke:#333;stroke-width:3px;"/></g><g id="file-image"><rect x="50" y="-0" width="50" height="50" style="fill:none;"/><path d="M78.75,10l-12.75,0c-1.646,0 -3,1.354 -3,3l0,24c0,1.646 1.354,3 3,3l18,0c1.646,0 3,-1.354 3,-3l0,-18.75l-8.25,-8.25Z" style="fill:none;fill-rule:nonzero;stroke:#333;stroke-width:3px;"/><path d="M78,10l0,9l9,0" style="fill:none;fill-rule:nonzero;stroke:#333;stroke-width:3px;"/><circle cx="72" cy="26.5" r="3" style="fill:none;stroke:#333;stroke-width:3px;"/><path d="M87,32.5l-1.635,-1.635c-1.162,-1.155 -3.068,-1.155 -4.23,0l-9.135,9.135" style="fill:none;fill-rule:nonzero;stroke:#333;stroke-width:3px;"/></g><g id="file-text"><rect x="100" y="0" width="50" height="50" style="fill:none;"/><path d="M128.75,10l-12.75,0c-1.646,0 -3,1.354 -3,3l0,24c0,1.646 1.354,3 3,3l18,0c1.646,0 3,-1.354 3,-3l0,-18.75l-8.25,-8.25Z" style="fill:none;fill-rule:nonzero;stroke:#333;stroke-width:3px;"/><path d="M128,10l0,9l9,0" style="fill:none;fill-rule:nonzero;stroke:#333;stroke-width:3px;"/><path d="M131,26.5l-12,0" style="fill:none;fill-rule:nonzero;stroke:#333;stroke-width:3px;"/><path d="M131,32.5l-12,0" style="fill:none;fill-rule:nonzero;stroke:#333;stroke-width:3px;"/><path d="M122,20.5l-3,0" style="fill:none;fill-rule:nonzero;stroke:#333;stroke-width:3px;"/></g><g id="file-text1" serif:id="file-text"><rect x="150" y="0" width="50" height="50" style="fill:none;"/><path d="M178.75,10l-12.75,0c-1.646,0 -3,1.354 -3,3l0,24c0,1.646 1.354,3 3,3l18,0c1.646,0 3,-1.354 3,-3l0,-18.75l-8.25,-8.25Z" style="fill:none;fill-rule:nonzero;stroke:#333;stroke-width:3px;"/><path d="M178,10l0,9l9,0" style="fill:none;fill-rule:nonzero;stroke:#333;stroke-width:3px;"/><path d="M181,26.5l-12,0" style="fill:none;fill-rule:nonzero;stroke:#333;stroke-width:3px;"/><path d="M181,32.5l-12,0" style="fill:none;fill-rule:nonzero;stroke:#333;stroke-width:3px;"/><path d="M172,20.5l-3,0" style="fill:none;fill-rule:nonzero;stroke:#333;stroke-width:3px;"/></g><g id="file-spreadsheet"><rect x="200" y="0" width="50" height="50" style="fill:none;"/><path d="M228.75,10l-12.75,0c-1.646,0 -3,1.354 -3,3l0,24c0,1.646 1.354,3 3,3l18,0c1.646,0 3,-1.354 3,-3l0,-18.75l-8.25,-8.25Z" style="fill:none;fill-rule:nonzero;stroke:#333;stroke-width:3px;"/><path d="M228,10l0,9l9,0" style="fill:none;fill-rule:nonzero;stroke:#333;stroke-width:3px;"/><path d="M219,26.5l3,0" style="fill:none;fill-rule:nonzero;stroke:#333;stroke-width:3px;"/><path d="M219,32.5l3,0" style="fill:none;fill-rule:nonzero;stroke:#333;stroke-width:3px;"/><path d="M228,26.5l3,0" style="fill:none;fill-rule:nonzero;stroke:#333;stroke-width:3px;"/><path d="M228,32.5l3,0" style="fill:none;fill-rule:nonzero;stroke:#333;stroke-width:3px;"/></g><g id="file-pie-chart"><rect x="250" y="0" width="50" height="50" style="fill:none;"/><path d="M282.455,40l3,-0c1.646,-0 3,-1.354 3,-3l0,-18.75l-8.25,-8.25l-12.75,-0c-1.645,-0 -3,1.354 -3,3l0,4.5" style="fill:none;fill-rule:nonzero;stroke:#333;stroke-width:3px;"/><path d="M279.455,10l0,9l9,0" style="fill:none;fill-rule:nonzero;stroke:#333;stroke-width:3px;"/><path d="M264.515,24.565c-1.887,1.662 -2.97,4.059 -2.97,6.575c-0,4.805 3.954,8.76 8.76,8.76c2.481,-0 4.85,-1.055 6.51,-2.9" style="fill:none;fill-rule:nonzero;stroke:#333;stroke-width:3px;"/><path d="M279.2,31c0,-4.797 -3.947,-8.745 -8.745,-8.745l0,8.745l8.745,0Z" style="fill:none;fill-rule:nonzero;stroke:#333;stroke-width:3px;"/></g><g id="file-text2" serif:id="file-text"><rect x="300" y="0" width="50" height="50" style="fill:none;"/><path d="M328.75,10l-12.75,0c-1.646,0 -3,1.354 -3,3l0,24c0,1.646 1.354,3 3,3l18,0c1.646,0 3,-1.354 3,-3l0,-18.75l-8.25,-8.25Z" style="fill:none;fill-rule:nonzero;stroke:#333;stroke-width:3px;"/><path d="M328,10l0,9l9,0" style="fill:none;fill-rule:nonzero;stroke:#333;stroke-width:3px;"/><path d="M331,26.5l-12,0" style="fill:none;fill-rule:nonzero;stroke:#333;stroke-width:3px;"/><path d="M331,32.5l-12,0" style="fill:none;fill-rule:nonzero;stroke:#333;stroke-width:3px;"/><path d="M322,20.5l-3,0" style="fill:none;fill-rule:nonzero;stroke:#333;stroke-width:3px;"/></g><g id="file-archive"><rect x="350" y="0" width="50" height="50" style="fill:none;"/><path d="M363,40l0,-27c0,-0.75 0.3,-1.5 0.9,-2.1c0.6,-0.6 1.35,-0.9 2.1,-0.9l12.75,0l8.25,8.25l0,18.75c0,0.75 -0.3,1.5 -0.9,2.1c-0.6,0.6 -1.35,0.9 -2.1,0.9l-3,0" style="fill:none;fill-rule:nonzero;stroke:#333;stroke-width:3px;"/><path d="M378,10l0,9l9,0" style="fill:none;fill-rule:nonzero;stroke:#333;stroke-width:3px;"/><circle cx="372" cy="37" r="3" style="fill:none;stroke:#333;stroke-width:3px;"/><path d="M372,17.5l0,-1.5" style="fill:none;fill-rule:nonzero;stroke:#333;stroke-width:3px;"/><path d="M372,25l0,-1.5" style="fill:none;fill-rule:nonzero;stroke:#333;stroke-width:3px;"/><path d="M372,34l0,-3" style="fill:none;fill-rule:nonzero;stroke:#333;stroke-width:3px;"/></g><g id="file-cog"><rect x="400" y="0" width="50" height="50" style="fill:none;"/><path d="M414.5,16l0,-3c0,-1.646 1.354,-3 3,-3l12.75,0l8.25,8.25l0,18.75c0,1.646 -1.354,3 -3,3l-21,0" style="fill:none;fill-rule:nonzero;stroke:#333;stroke-width:3px;"/><path d="M429.5,10l0,9l9,0" style="fill:none;fill-rule:nonzero;stroke:#333;stroke-width:3px;"/><circle cx="417.5" cy="28" r="4.5" style="fill:none;stroke:#333;stroke-width:3px;"/><path d="M417.5,22l0,1.5" style="fill:none;fill-rule:nonzero;stroke:#333;stroke-width:3px;"/><path d="M417.5,32.5l0,1.5" style="fill:none;fill-rule:nonzero;stroke:#333;stroke-width:3px;"/><path d="M423.5,28l-1.5,0" style="fill:none;fill-rule:nonzero;stroke:#333;stroke-width:3px;"/><path d="M413,28l-1.5,0" style="fill:none;fill-rule:nonzero;stroke:#333;stroke-width:3px;"/><path d="M422,23.5l-1.32,1.32" style="fill:none;fill-rule:nonzero;stroke:#333;stroke-width:3px;"/><path d="M414.32,31.18l-1.32,1.32" style="fill:none;fill-rule:nonzero;stroke:#333;stroke-width:3px;"/><path d="M422,32.5l-1.32,-1.32" style="fill:none;fill-rule:nonzero;stroke:#333;stroke-width:3px;"/><path d="M414.32,24.82l-1.32,-1.32" style="fill:none;fill-rule:nonzero;stroke:#333;stroke-width:3px;"/></g><g id="file-cog1" serif:id="file-cog"><rect x="450" y="0" width="50" height="50" style="fill:none;"/><path d="M464.5,16l0,-3c0,-1.646 1.354,-3 3,-3l12.75,0l8.25,8.25l0,18.75c0,1.646 -1.354,3 -3,3l-21,0" style="fill:none;fill-rule:nonzero;stroke:#333;stroke-width:3px;"/><path d="M479.5,10l0,9l9,0" style="fill:none;fill-rule:nonzero;stroke:#333;stroke-width:3px;"/><circle cx="467.5" cy="28" r="4.5" style="fill:none;stroke:#333;stroke-width:3px;"/><path d="M467.5,22l0,1.5" style="fill:none;fill-rule:nonzero;stroke:#333;stroke-width:3px;"/><path d="M467.5,32.5l0,1.5" style="fill:none;fill-rule:nonzero;stroke:#333;stroke-width:3px;"/><path d="M473.5,28l-1.5,0" style="fill:none;fill-rule:nonzero;stroke:#333;stroke-width:3px;"/><path d="M463,28l-1.5,0" style="fill:none;fill-rule:nonzero;stroke:#333;stroke-width:3px;"/><path d="M472,23.5l-1.32,1.32" style="fill:none;fill-rule:nonzero;stroke:#333;stroke-width:3px;"/><path d="M464.32,31.18l-1.32,1.32" style="fill:none;fill-rule:nonzero;stroke:#333;stroke-width:3px;"/><path d="M472,32.5l-1.32,-1.32" style="fill:none;fill-rule:nonzero;stroke:#333;stroke-width:3px;"/><path d="M464.32,24.82l-1.32,-1.32" style="fill:none;fill-rule:nonzero;stroke:#333;stroke-width:3px;"/></g><g id="file-audio"><rect x="500" y="0" width="50" height="50" style="fill:none;"/><path d="M534.75,40l0.75,0c0.75,0 1.5,-0.3 2.1,-0.9c0.6,-0.6 0.9,-1.35 0.9,-2.1l0,-18.75l-8.25,-8.25l-12.75,0c-0.75,0 -1.5,0.3 -2.1,0.9c-0.6,0.6 -0.9,1.35 -0.9,2.1l0,4.5" style="fill:none;fill-rule:nonzero;stroke:#333;stroke-width:3px;"/><path d="M529.5,10l0,9l9,0" style="fill:none;fill-rule:nonzero;stroke:#333;stroke-width:3px;"/><path d="M523.5,37l0,-1.5c0,-1.646 1.354,-3 3,-3c1.646,0 3,1.354 3,3l0,1.5c0,1.646 -1.354,3 -3,3c-1.646,0 -3,-1.354 -3,-3Z" style="fill:none;fill-rule:nonzero;stroke:#333;stroke-width:3px;"/><path d="M517.5,37l0,-1.5c0,-1.646 -1.354,-3 -3,-3c-1.646,0 -3,1.354 -3,3l0,1.5c0,1.646 1.354,3 3,3c1.646,0 3,-1.354 3,-3Z" style="fill:none;fill-rule:nonzero;stroke:#333;stroke-width:3px;"/><path d="M511.5,35.5l0,-4.5c0,-4.937 4.063,-9 9,-9c4.937,0 9,4.063 9,9l0,4.5" style="fill:none;fill-rule:nonzero;stroke:#333;stroke-width:3px;"/></g><g id="file-audio1" serif:id="file-audio"><rect x="550" y="0" width="50" height="50" style="fill:none;"/><path d="M584.75,40l0.75,0c0.75,0 1.5,-0.3 2.1,-0.9c0.6,-0.6 0.9,-1.35 0.9,-2.1l0,-18.75l-8.25,-8.25l-12.75,0c-0.75,0 -1.5,0.3 -2.1,0.9c-0.6,0.6 -0.9,1.35 -0.9,2.1l0,4.5" style="fill:none;fill-rule:nonzero;stroke:#333;stroke-width:3px;"/><path d="M579.5,10l0,9l9,0" style="fill:none;fill-rule:nonzero;stroke:#333;stroke-width:3px;"/><path d="M573.5,37l0,-1.5c0,-1.646 1.354,-3 3,-3c1.646,0 3,1.354 3,3l0,1.5c0,1.646 -1.354,3 -3,3c-1.646,0 -3,-1.354 -3,-3Z" style="fill:none;fill-rule:nonzero;stroke:#333;stroke-width:3px;"/><path d="M567.5,37l0,-1.5c0,-1.646 -1.354,-3 -3,-3c-1.646,0 -3,1.354 -3,3l0,1.5c0,1.646 1.354,3 3,3c1.646,0 3,-1.354 3,-3Z" style="fill:none;fill-rule:nonzero;stroke:#333;stroke-width:3px;"/><path d="M561.5,35.5l0,-4.5c0,-4.937 4.063,-9 9,-9c4.937,0 9,4.063 9,9l0,4.5" style="fill:none;fill-rule:nonzero;stroke:#333;stroke-width:3px;"/></g><g id="file-video-2"><rect x="600" y="0" width="50" height="50" style="fill:none;"/><path d="M614.5,19l0,-6c0,-1.646 1.354,-3 3,-3l12.75,0l8.25,8.25l0,18.75c0,1.646 -1.354,3 -3,3l-21,0" style="fill:none;fill-rule:nonzero;stroke:#333;stroke-width:3px;"/><path d="M629.5,10l0,9l9,0" style="fill:none;fill-rule:nonzero;stroke:#333;stroke-width:3px;"/><path d="M623.5,30.25l6,3.75l0,-9l-6,3.75" style="fill:none;fill-rule:nonzero;stroke:#333;stroke-width:3px;"/><path d="M623.5,26c0,-0.552 -0.448,-1 -1,-1l-10,0c-0.552,0 -1,0.448 -1,1l0,7c0,0.552 0.448,1 1,1l10,0c0.552,0 1,-0.448 1,-1l0,-7Z" style="fill:none;stroke:#333;stroke-width:3px;"/></g><g id="file-video-21" serif:id="file-video-2"><rect x="650" y="0" width="50" height="50" style="fill:none;"/><path d="M664.5,19l0,-6c0,-1.646 1.354,-3 3,-3l12.75,0l8.25,8.25l0,18.75c0,1.646 -1.354,3 -3,3l-21,0" style="fill:none;fill-rule:nonzero;stroke:#333;stroke-width:3px;"/><path d="M679.5,10l0,9l9,0" style="fill:none;fill-rule:nonzero;stroke:#333;stroke-width:3px;"/><path d="M673.5,30.25l6,3.75l0,-9l-6,3.75" style="fill:none;fill-rule:nonzero;stroke:#333;stroke-width:3px;"/><path d="M673.5,26c0,-0.552 -0.448,-1 -1,-1l-10,0c-0.552,0 -1,0.448 -1,1l0,7c0,0.552 0.448,1 1,1l10,0c0.552,0 1,-0.448 1,-1l0,-7Z" style="fill:none;stroke:#333;stroke-width:3px;"/></g><g id="file-video-22" serif:id="file-video-2"><rect x="700" y="0" width="50" height="50" style="fill:none;"/><path d="M714.5,19l0,-6c0,-1.646 1.354,-3 3,-3l12.75,0l8.25,8.25l0,18.75c0,1.646 -1.354,3 -3,3l-21,0" style="fill:none;fill-rule:nonzero;stroke:#333;stroke-width:3px;"/><path d="M729.5,10l0,9l9,0" style="fill:none;fill-rule:nonzero;stroke:#333;stroke-width:3px;"/><path d="M723.5,30.25l6,3.75l0,-9l-6,3.75" style="fill:none;fill-rule:nonzero;stroke:#333;stroke-width:3px;"/><path d="M723.5,26c0,-0.552 -0.448,-1 -1,-1l-10,0c-0.552,0 -1,0.448 -1,1l0,7c0,0.552 0.448,1 1,1l10,0c0.552,0 1,-0.448 1,-1l0,-7Z" style="fill:none;stroke:#333;stroke-width:3px;"/></g><g id="file-video-23" serif:id="file-video-2"><rect x="750" y="0" width="50" height="50" style="fill:none;"/><path d="M764.5,19l0,-6c0,-1.646 1.354,-3 3,-3l12.75,0l8.25,8.25l0,18.75c0,1.646 -1.354,3 -3,3l-21,0" style="fill:none;fill-rule:nonzero;stroke:#333;stroke-width:3px;"/><path d="M779.5,10l0,9l9,0" style="fill:none;fill-rule:nonzero;stroke:#333;stroke-width:3px;"/><path d="M773.5,30.25l6,3.75l0,-9l-6,3.75" style="fill:none;fill-rule:nonzero;stroke:#333;stroke-width:3px;"/><path d="M773.5,26c0,-0.552 -0.448,-1 -1,-1l-10,0c-0.552,0 -1,0.448 -1,1l0,7c0,0.552 0.448,1 1,1l10,0c0.552,0 1,-0.448 1,-1l0,-7Z" style="fill:none;stroke:#333;stroke-width:3px;"/></g><g id="ps"><rect x="800" y="0" width="50" height="50" style="fill:none;"/><path d="M814.5,40l21,0c1.646,0 3,-1.354 3,-3l0,-18.75l-8.25,-8.25l-12.75,0c-1.646,0 -3,1.354 -3,3l0,6" style="fill:none;fill-rule:nonzero;stroke:#333;stroke-width:3px;"/><path d="M829.5,10l0,9l9,0" style="fill:none;fill-rule:nonzero;stroke:#333;stroke-width:3px;"/><path d="M811.5,34l0,-9l6,0l0,4.5l-6,0" style="fill:none;stroke:#333;stroke-width:3px;stroke-miterlimit:1.5;"/><path d="M829.5,25l-6,0l0,4.5l6,0l0,4.5l-6,0" style="fill:none;stroke:#333;stroke-width:3px;stroke-miterlimit:1.5;"/></g><g id="ai"><rect x="849.949" y="0" width="50" height="50" style="fill:none;"/><path d="M864.5,40l21,0c1.646,0 3,-1.354 3,-3l0,-18.75l-8.25,-8.25l-12.75,0c-1.646,0 -3,1.354 -3,3l0,6" style="fill:none;fill-rule:nonzero;stroke:#333;stroke-width:3px;"/><path d="M879.5,10l0,9l9,0" style="fill:none;fill-rule:nonzero;stroke:#333;stroke-width:3px;"/><path d="M861.5,34l0,-9l6,0l0,9" style="fill:none;stroke:#333;stroke-width:3px;stroke-miterlimit:1.5;"/><path d="M861.5,29.5l6,0" style="fill:none;stroke:#333;stroke-width:3px;stroke-miterlimit:1.5;"/><path d="M873.5,25l0,9" style="fill:none;stroke:#333;stroke-width:3px;stroke-miterlimit:1.5;"/></g><g id="file-code"><rect x="900" y="0" width="50" height="50" style="fill:none;"/><path d="M914.5,40l21,0c1.646,0 3,-1.354 3,-3l0,-18.75l-8.25,-8.25l-12.75,0c-1.646,0 -3,1.354 -3,3l0,6" style="fill:none;fill-rule:nonzero;stroke:#333;stroke-width:3px;"/><path d="M929.5,10l0,9l9,0" style="fill:none;fill-rule:nonzero;stroke:#333;stroke-width:3px;"/><path d="M922,34l4.5,-4.5l-4.5,-4.5" style="fill:none;fill-rule:nonzero;stroke:#333;stroke-width:3px;"/><path d="M916,25l-4.5,4.5l4.5,4.5" style="fill:none;fill-rule:nonzero;stroke:#333;stroke-width:3px;"/></g><g id="folder"><path d="M963,37.75l24,0c1.646,0 3,-1.354 3,-3l-0,-15c-0,-1.646 -1.354,-3 -3,-3l-11.895,0c-1.003,-0.005 -1.939,-0.513 -2.49,-1.35l-1.23,-1.8c-0.551,-0.837 -1.487,-1.345 -2.49,-1.35l-5.895,0c-1.646,0 -3,1.354 -3,3l-0,19.5c-0,1.65 1.35,3 3,3Z" style="fill:none;fill-rule:nonzero;stroke:#333;stroke-width:3px;"/></g></g></svg>